<svg xmlns="http://www.w3.org/2000/svg" xmlns:xlink="http://www.w3.org/1999/xlink" viewBox="0 0 618 156"><g fill="#00B9E2"><path d="M176.8 30.8c-1.1-5.5-5.7-8.6-11-8.6-5.5 0-9.4 2.4-9.4 6.8 0 4.5 6.1 6 12.6 8.2 7.1 2.3 15.9 5.1 15.9 15 0 8.6-7.4 14.8-18.5 14.8-10.6 0-17.5-6.1-19.6-14.7l7.7-2.1c.8 5.2 5.4 9.7 12.4 9.7 6.1 0 10-3.2 10-7.4 0-5.9-8.1-7.7-15-9.9-5.9-2-13.5-4.8-13.5-13.3 0-7.7 7.4-13.9 17.7-13.9 9.1 0 16.4 5.5 18.2 13.4l-7.5 2zm46.5-14.4c11.7 0 18.8 6.1 18.8 16.2s-7.1 16.2-18.8 16.2h-8.6V66h-7.9V16.4h16.5zm-.1 25.1c6.9 0 10.8-3.3 10.8-8.9 0-5.7-4.1-8.9-10.8-8.9h-8.5v17.7h8.5zm73.7 17.1V66h-34.5V16.4h34.1v7.4h-26.2v12.9h20.9v7.2h-20.9v14.8h26.6zm58-28.1c-3-4.6-8.6-7.4-14.5-7.4-10.3 0-17.6 7.4-17.6 18.1 0 10.8 7.6 18 17.6 18 6.7 0 12.6-3.5 15.5-8.8l7.9 2.1c-4.2 8.8-13 14.5-23.3 14.5-14.2 0-25.7-10.8-25.7-25.8s11.5-25.8 25.7-25.8c9.7 0 18.1 5.2 22.5 13l-8.1 2.1zm64.2-14.1v7.4H403V66h-7.9V23.7h-15.9v-7.4h39.9zM468 66l-11-17.7h-9.7V66h-7.9V16.4h16.2c11.9 0 19.1 6.2 19.1 15.9 0 6.9-3.6 12-9.9 14.5l12 19.2H468zm-11.4-25.1c6.7 0 10-3.7 10-8.6 0-5.1-3.5-8.6-10-8.6h-9.3v17.2h9.3zm82.5-24.5V45c0 14-8.2 22-21.3 22-13.2 0-21.3-8.1-21.3-22V16.4h7.9v28.8c0 8.9 4.7 14.5 13.4 14.5s13.4-5.5 13.4-14.5V16.4h7.9zm70.7 0V66h-7.9V32.5l.1-2.1-.9 2.1-13.3 21.3h-3.3l-13.3-21.3-.9-2 .1 2V66h-7.9V16.4h7.4l15.5 24.9.7 1.4.7-1.4 15.5-24.9h7.5zM170.5 89.6c8.6 0 14.5 5.3 14.5 12.5 0 4.9-3.6 9.1-7.2 10.1 4.9.8 10.3 5.7 10.3 12.2 0 8.6-5.9 14.8-16.9 14.8h-20.3V89.6h19.6zm-1.5 20c4.9 0 8.2-2.8 8.2-6.7 0-4-3.3-6.7-8.2-6.7h-10.2v13.4H169zm1.6 23c5.4 0 9.4-3.2 9.4-8.2s-4.3-8.3-9.6-8.3h-11.6v16.5h11.8zm61-44c14.2 0 25.8 10.8 25.8 25.8s-11.6 25.8-25.8 25.8-25.7-10.8-25.7-25.8 11.5-25.8 25.7-25.8zm0 43.9c10.1 0 17.6-7.4 17.6-18.1 0-10.8-7.5-18.1-17.6-18.1-10.2 0-17.6 7.2-17.6 18.1.1 10.7 7.4 18.1 17.6 18.1z"/><use xlink:href="#B"/><path d="M382 89.6V97h-16.1v42.2H358V97h-15.9v-7.4H382zm22.7 49.6V89.6h7.9v49.6h-7.9zm52.8.7c-12.3-1.9-21.5-12-21.5-25.5 0-15 11.5-25.8 25.7-25.8s25.8 10.8 25.8 25.8c0 13.6-9.6 23.9-22.1 25.6v8.6h-7.9v-8.7zm21.9-25.5c0-10.8-7.5-18.1-17.6-18.1-10.2 0-17.6 7.2-17.6 18.1 0 10.7 7.4 18.1 17.6 18.1 10 0 17.6-7.4 17.6-18.1z"/><use xlink:href="#B" x="231"/><path d="M609.8 131.8v7.4h-34.5V89.6h34.1V97h-26.2v12.9H604v7.2h-20.9v14.8h26.7zM115.5 33.7c0-16.1-13.1-29.2-29.2-29.2-8.1 0-15.6 3.3-21.1 9.4-2.1 2.3-3.8 4.9-5.1 7.7-1.3-2.8-3-5.4-5.1-7.7-5.5-6.1-13-9.4-21.1-9.4-16 .1-29 13.2-29 29.2 0 22.3 20.4 34.1 40 45.5l9.7 5.7c-3.7 2.5-7.1 5.2-10.1 8.1-9.1 8.6-13.5 18-13.5 28.7 0 16.1 13.1 29.2 29.2 29.2s29.2-13.1 29.2-29.2c0-10.7-4.4-20.1-13.5-28.7-1.3-1.2-2.6-2.4-4-3.5-1.9 1.1-3.7 2.2-5.5 3.4 1.9 1.5 3.7 3 5.4 4.5 7.9 7.5 11.6 15.2 11.6 24.3 0 12.7-10.4 23.1-23.1 23.1s-23.1-10.4-23.1-23.1c0-9.1 3.7-16.8 11.6-24.3 3.4-3.2 7.3-6.1 11.5-9 4.9-3.3 10.3-6.4 15.5-9.4 19.5-11.3 39.7-23.1 39.7-45.3zM72.4 74l-12.2 7.3c-4-2.5-8.1-4.9-12.2-7.3-19-11.1-37-21.5-37-40.3-.1-12.7 10.3-23.1 23-23.1 6.4 0 12.3 2.6 16.6 7.4 4.1 4.6 6.5 10.9 6.5 17.2h6.1c0-6.3 2.4-12.6 6.5-17.2 4.3-4.8 10.2-7.4 16.6-7.4 12.7 0 23.1 10.4 23.1 23.1 0 18.8-17.9 29.3-37 40.3z"/></g><defs ><path id="B" d="M320.6 89.6v28.6c0 14-8.2 22-21.3 22-13.2 0-21.3-8.1-21.3-22V89.6h7.9v28.8c0 8.9 4.7 14.5 13.4 14.5s13.4-5.5 13.4-14.5V89.6h7.9z"/></defs></svg>
